<svg id="PRINT" xmlns="http://www.w3.org/2000/svg" xmlns:xlink="http://www.w3.org/1999/xlink" viewBox="0 0 308.97 301.62"><defs><style>.cls-1{fill:none;}.cls-2{clip-path:url(#clip-path);}.cls-3{fill:#c8eff9;}.cls-4{fill:#fff;}.cls-5{fill:#95e5d8;}.cls-6{fill:#72bec7;}.cls-7{fill:#7d9dcc;}.cls-8{fill:#bde2fa;}.cls-9{fill:#00318b;}</style><clipPath id="clip-path"><rect class="cls-1" x="3.67" y="-3.67" width="301.62" height="308.97" transform="translate(305.3 -3.67) rotate(90)"/></clipPath></defs><g class="cls-2"><circle class="cls-3" cx="117.49" cy="190.08" r="153.99"/><path class="cls-4" d="M17,327.75c4.7-3,9.26-6,14.25-8.54a108.25,108.25,0,0,1,15-6.21c9.38-3.08,19.08-4.77,27.81-9.59s16.48-11.13,24.19-17.29q12.38-9.87,24.21-20.42c2.06-1.83,4.1-3.65,6.14-5.49,1.56-1.41,3.43-2.52,4.9-4s2.4-3.35,3.66-5c.68-.86,1.4-1.69,2.1-2.53a3.75,3.75,0,0,0,.34-.45c.7-.41,1.41-.8,2.13-1.19a5,5,0,0,0,1.87,1.71c2.4,1.91,5.42,2.79,8.43,1.32a54.35,54.35,0,0,0,6.58-4.26q3.67-2.52,7.19-5.22a130,130,0,0,0,12.84-10.93,38,38,0,0,0,9.07-13.11c1.68-4.42,2.61-9.86.89-14.42s-6.27-6.79-10.72-7.63a30.56,30.56,0,0,0-8.76-.76,57.54,57.54,0,0,0,4.86-5.7c3.63-5,6-11,5.54-17.24a15.33,15.33,0,0,0-8.89-13.26,13.81,13.81,0,0,0-8-1,8.09,8.09,0,0,0-2.11.72c1.16-1,2.31-2,3.47-3,2.69-2.41,5.3-4.91,7.87-7.46l3.16-2.55,3.33-4c3.55-3.36,7.63-6.1,11-9.69,3.58-3.79,7.1-8.39,7.93-13.66a12.28,12.28,0,0,0-5.41-12.46,11.25,11.25,0,0,0-4.63-1.58l-.06-.09c-.32,0-.62,0-.93,0a11.17,11.17,0,0,0-3.45.45,54.58,54.58,0,0,1,4.85-4.09c20.26-17.57,41.62-34,61.32-52.21.17-.2,0-.5-.24-.54a7.81,7.81,0,0,0-1.48-3c1.48-1,3.8-3.35,4.39-3.6.22-1-.08-1.16-.62-.91-.46-1.56-2-3.25-3.49-4.9,2.47-1.37,7.73-6.75,8.68-7.23,8.92-7.67,18.12-15.06,26.62-23.19-12.1,8.45-24.34,19.7-36.09,29.55a21.29,21.29,0,0,1-2-2.46c-.57-.48-1.81-2.7-2.61-2.6.16-2.07-3.42,1.69-5,3.17a23.37,23.37,0,0,0-3.25-3,1.18,1.18,0,0,0-.05.37.35.35,0,0,0-.49-.25c-6.37,4.24-11.88,9.7-17.83,14.51-17.32,14.76-34.87,29.31-52.17,44.09a6.62,6.62,0,0,0,1.49-3.11,12.57,12.57,0,0,0-4.13-12.8c-3.62-3.21-9.69-5.28-14-2.57a136.06,136.06,0,0,1-15.61,8.37,32.33,32.33,0,0,0-10.53,4.72h0a65.7,65.7,0,0,0-5.85,4,236.65,236.65,0,0,0-25.12,21.67c-1.52,1.43-2.8,2.7-3.72,3.74l-.13.15c-14.74,15.57-26,34-40,50.13a185.5,185.5,0,0,0-15.29,15.3c-2.07,2.28-4.08,4.6-6.08,6.94-1.24,1.43-2.34,2.74-3.25,3.89a2.47,2.47,0,0,0-.21.27A271,271,0,0,0,.84,215.34c-8.1,12.92-15,26.5-26.86,36.54a.55.55,0,0,0-.09.82,1.52,1.52,0,0,1-.21.15l18.75,33.71a4.62,4.62,0,0,0-1.15,2.25,7.63,7.63,0,0,0,.6,3.66Q-6.31,297.7-4.51,303a2.07,2.07,0,0,0,1,1.38A2,2,0,0,0-2,304.06c1.12-.52,2.22-1.06,3.33-1.58L11,319.91a12.46,12.46,0,0,1-.62,3.43c.52-.57,1.06-1.1,1.62-1.64l3.39,6.09.32-.22A1,1,0,0,0,17,327.75Zm84.38-163.19,4.87-24,12.43,14Z"/><path class="cls-5" d="M155.2,96.85c-1.48-1.67,9.15-8.66,9.5-12.9s-4.13-15.19-10.45-15.63S143.8,73.19,137,75.25s-10.69,2.39-16.58,6.41S92,104,85.65,111.08,61,146.59,53.31,153.92s-25.59,24.86-32.44,33.57S-5.76,231.72-11.6,239s-14.71,13.91-14.71,13.91L15.37,327.8s19.19-14.12,38.9-19.26,31.54-17.8,41.47-23.16,25.5-21.33,31.58-26.67,13.59-13.31,13.59-13.31,1.16,6.12,9.39,3.29,21-13.43,29.18-22.76,12.21-19,5.85-26.05-19-4.64-19-4.64,5.11-5.82,8.58-10.31,5.68-14.74.14-22.44-17.56-3.74-17.56-3.74l21.19-19.82s12.7-10.59,15.58-16.3,3.31-13.49-2.29-17.08-15.37.23-15.86,1.3-7.08,6.73-7.08,6.73l3.93,5.28-2.38,1.25-4.08-3.8-47.86,38.31-16.39,9.85s2.34-8,2.45-12.46.07-11.22.07-11.22,7.58-4.43,10.59-11.59c9-.54,25-23.54,25-23.54s2.43,1.76,6.07-.85,6.92-5.25,6.92-5.25l-7.76-7.94,2.54-2.72Z"/><path class="cls-6" d="M93.27,125.81a2.51,2.51,0,0,1,3.44.3,6.45,6.45,0,0,1,1.42,3.52c2.2,12.92-2.42,26.17-9.24,37.37a174.52,174.52,0,0,1-12.46,17.29c-3.83,4.83-8,9.55-11.38,14.69-1,1.49-1.32,3.21-2.2,4.73-1.24,2.13-3.49,3.79-5.37,5.32a58.22,58.22,0,0,1-6.82,4.76l-.15.09c-2.85,1.69-5.9,3.17-8.24,5.51a28.6,28.6,0,0,0-4.57,6.74c-11.58,21.26-22.33,44.46-42.35,58.08-1.75,1.18-3.72,2.52-4.08,4.6a7.52,7.52,0,0,0,.61,3.66Q-6.31,297.7-4.5,303c.19.55.44,1.18,1,1.37A2,2,0,0,0-2,304.06q11.13-5.21,22.16-10.58c17.64-8.61,36.38-18.86,44.38-36.79,2.75-6.16,4-12.87,5-19.54,1.35-9.21,2.17-18.71-.07-27.75A102.33,102.33,0,0,0,103,156.48c1.58-6.15,2.58-12.58,1.53-18.85s-4.41-12.37-9.9-15.56Z"/><path class="cls-6" d="M161.8,89.25a11,11,0,0,0-6-13.08,3,3,0,0,0-1.32-.31c-1.15,0-1.94,1.14-2.59,2.09a44.54,44.54,0,0,1-24.17,17.49c2,1.61.6,4.79-1,6.77A61,61,0,0,1,109.42,117c-4.18,2.37-9.12,4.83-10.23,9.5A32.69,32.69,0,0,1,103.26,142a94.89,94.89,0,0,0,12.4-10.89l7.11-7q8.92-8.81,17.9-17.56a6.93,6.93,0,0,1,2.51-1.8,13.06,13.06,0,0,1,3-.31A7.75,7.75,0,0,0,152.4,100a41.13,41.13,0,0,1-6.11-8.21l2.57-2.2a24.17,24.17,0,0,0,5.81,8c-.35-1-.7-2-1-2.94Z"/><path class="cls-6" d="M192.91,122.67c.41-2.47.81-5.08-.13-7.4s-3.75-4.06-6-2.94a6.78,6.78,0,0,0-2.32,2.35l-6.83,9.63a26.15,26.15,0,0,1-5.7,6.42c-2.34,1.68-5.46,2.55-8.14,1.51.63,2.8-1.51,5.4-3.5,7.47A141.37,141.37,0,0,1,143,155.56c-3.4,2.5-7,4.73-10.58,7l-4.53,2.83c-5.89,3.66-12.36,7.47-19.26,6.74a23.29,23.29,0,0,1,2.35-12c-8.71,3.17-13.57,12.23-17.64,20.55l19,14.16q31.26-25.33,62.61-50.55Z"/><path class="cls-6" d="M187.94,104.29q-5.91,4.23-11.44,9a5.07,5.07,0,0,0-1.68,2.06c-.63,1.84.9,3.9.26,5.73a2.55,2.55,0,0,1-5-.93l-42.58,36.39c-1.42,1.21-3,2.64-3,4.51-2.34-2-5.89-.21-8.39,1.58l-12.39,8.9c-.15-4,2-7.78,4.85-10.57s6.38-4.75,9.81-6.79c17.89-10.65,33.92-24.12,49.86-37.51l3.43,3.82a8.93,8.93,0,0,0-2.44-5.31c7-2.56,10.44-12.65,17.86-12.33Z"/><path class="cls-6" d="M174.14,186.24a17.78,17.78,0,0,0-1-16.1c-5,6.19-10,12.46-16.39,17.13-9.49,6.91-22,10.33-28.66,20-1.89,2.72-3.23,6.19-2.13,9.3,1.63,4.6,7.93,6,12.39,4s7.47-6.16,10.26-10.16Z"/><path class="cls-6" d="M185.74,217.75a9,9,0,0,0-4.83-12.18,3.48,3.48,0,0,0-2.06-.18c-1.43.39-2,2-2.6,3.38-3.77,9.42-12.74,15.47-20.43,22.08C151,235,146.29,240,145,246.21a3.88,3.88,0,0,0,.25,2.85c.85,1.3,2.75,1.28,4.27.92,6-1.44,10.81-5.82,15.32-10l11.92-11.16Z"/><path class="cls-6" d="M148,170.43c-4.65,4.21-8.31,9.39-11.93,14.52l-10.72,15.23c-1.91,2.7-3.84,5.47-4.69,8.66s-.4,6.94,2,9.24c3.77,3.65,10,2,14.73-.3,10.26-5.12,19.15-12.57,27.94-19.94-.86,3.52,3.49,7.06,6.77,5.5a19.64,19.64,0,0,0-12.24,10.6,17.54,17.54,0,0,0,6.59,1.61,35.27,35.27,0,0,0-24.07,20.26c-1.47,3.46-2.15,8,.63,10.53-15.46,8.08-27.9,20.76-40.89,32.39s-27.43,22.72-44.48,26.39c-7.62,1.65-15.53,1.74-23.09,3.67a49.39,49.39,0,0,0-24.18,14.55c2.62-7.75-3.3-15.44-6.45-23a3.83,3.83,0,0,1-.39-2.51,4,4,0,0,1,2-2c10-6.12,20.2-12.15,29-19.93a93.94,93.94,0,0,0,30.06-53.78c.77-4.44,1.27-9.06,3.49-13a37.48,37.48,0,0,1,5.63-6.83,136.81,136.81,0,0,0,18.5-24.52l16.73,16a4,4,0,0,0,2,1.24,3.86,3.86,0,0,0,2.74-1c12.48-8.69,21.58-22.54,35.87-27.75Z"/><path class="cls-7" d="M240.06,37.32c-1-1.23-4.63-5.73-6.56-5.19S200.06,61.5,200.06,61.5l4,4.54s25.23-26.12,28.1-28.44S240.06,37.32,240.06,37.32Z"/><path class="cls-7" d="M244.47,41.53l3.19,5.21L212.22,77.39l-2.86-4.8s2.06,1.72,5.75-1.25,26.12-20.42,27.62-24A22.81,22.81,0,0,0,244.47,41.53Z"/><path class="cls-8" d="M244.47,41.53c-3.76-3.38-2.68-2.9-6.66-.71S205.2,69.53,205.2,69.53a48.18,48.18,0,0,1,4.16,3.06c2.06,1.72,4.32,1.59,11.07-5.55s18.15-12.29,21-17.6S244.47,41.53,244.47,41.53Z"/><polygon class="cls-7" points="238.89 34.2 243.06 30.16 247.69 35.89 241.46 38.22 238.89 34.2"/><path class="cls-8" d="M247.69,35.89l-6.23,2.33s4.47,7.21,5,6.14,4.66-5.12,4.66-5.12Z"/><polyline class="cls-7" points="198.43 73.3 161.27 106.02 166.6 112.2 207.34 80.99 200.44 72.02"/><polygon class="cls-8" points="198.42 69.93 195.15 65.47 157.79 100.03 160.07 103.27 198.42 69.93"/><path class="cls-8" d="M153.7,103.34c-.86,1-45.18,41.21-45.18,41.21l2.4,2.13,47-40.65Z"/><path class="cls-7" d="M157.9,106c-.6,2.18,6.62,8.19,6.62,8.19l-48,36.05-3.38-3.35Z"/><path class="cls-9" d="M248.66,46.64c-3.14-2.25-5.3-5.7-7.95-8.49-1.63-2.31-7.79-7.64-7-9.81,3.2,2.35,5.59,5.79,8.1,8.84C243.79,40.21,248.21,43.43,248.66,46.64Z"/><path class="cls-9" d="M233.65,29C214,47.12,192.6,63.6,172.33,81.17c-2.11,1.15-19.65,18.39-18.61,14C174.08,77.55,194.89,60.43,215.38,43c6-4.8,11.47-10.26,17.83-14.5A.35.35,0,0,1,233.65,29Z"/><path class="cls-9" d="M248.87,47c-19.7,18.15-41.06,34.63-61.33,52.19-2.11,1.16-19.65,18.4-18.61,14C189.29,95.59,210.1,78.47,230.59,61c6-4.8,11.47-10.26,17.84-14.51A.36.36,0,0,1,248.87,47Z"/><path class="cls-9" d="M245.92,43.16c.9-.5,6.4-6.72,5.62-3.29C250.61,40.26,245.4,45.88,245.92,43.16Z"/><path class="cls-9" d="M236.35,31.82c.91-.5,6.41-6.72,5.63-3.3C241.05,28.92,235.83,34.54,236.35,31.82Z"/><path class="cls-9" d="M251,39.54a73.86,73.86,0,0,1-9.52-10.86c.66-1.89,2.41,1.46,3.13,2.05C246.45,33.5,250.73,36.77,251,39.54Z"/><path class="cls-9" d="M282.73,3.64c-8.51,8.13-17.7,15.52-26.63,23.19-1.29.66-10.66,10.46-9.89,6.71C258.09,23.61,270.49,12.19,282.73,3.64Z"/><path class="cls-9" d="M173.42,119.75c-5-4-8.55-9.82-12.94-14.52-4.3-5.15-8.84-10.14-12.68-15.63a.28.28,0,0,1,.43-.37c7.05,7.14,13.13,15.18,19.7,22.75C169.47,114.44,173.37,117.08,173.42,119.75Z"/><path class="cls-9" d="M171,121.82c-5-4-8.55-9.82-12.95-14.52-4.29-5.15-8.83-10.14-12.67-15.64a.28.28,0,0,1,.43-.36c7,7.14,13.13,15.18,19.69,22.75C167,116.51,170.92,119.15,171,121.82Z"/><path class="cls-9" d="M173.68,119.2l-.07.15v-.13c-.14.89-1.52,1.87-2.38,2.39-1,.18-.48-1,0-1.3s1.48-1.43,2.18-1.28h-.13C173.48,118.93,173.76,119,173.68,119.2Z"/><path class="cls-9" d="M208,81.25c-22.72,18.85-47,35.93-70.28,54.15-2.29,1.13-22.24,18.77-21,14.41,23.36-18.28,47.14-36,70.62-54.16,6.75-4.94,13.07-10.55,20.2-14.92C207.86,80.58,208.24,81,208,81.25Z"/><path class="cls-9" d="M192.9,63.35c-21,21.09-43.79,40.58-65.42,61.12-2.17,1.34-20.6,21-19.59,16.4,21.71-20.6,43.9-40.71,65.74-61.16,6.3-5.6,12.1-11.83,18.83-16.89C192.76,62.63,193.1,63.08,192.9,63.35Z"/><path class="cls-9" d="M207.15,80.69c-1.17-1.56-18.87-18.58-13.52-17.57C194.61,64.34,211.79,82.23,207.15,80.69Z"/><path class="cls-9" d="M211.57,77c-1.17-1.56-18.87-18.58-13.52-17.57C199,60.61,216.21,78.5,211.57,77Z"/><path class="cls-9" d="M120.34,157.45c-3.47-1.74-27.6-32.54-12.73-16.36q5.7,6.72,11.33,13.5C119.41,155.3,121.06,156.72,120.34,157.45Z"/><path class="cls-9" d="M199.59,71.68c-2.39,4.11-58.65,49.85-31.76,25.64C178.43,89.32,188.65,77.84,199.59,71.68Z"/><path class="cls-9" d="M158.74,106.3c-15.27,14.11-31,27.92-47,41.27-2.78-.57,7.45-7.37,8.3-8.79,9.08-8.17,18.31-16.14,27.53-24.14C149.3,113.75,158.5,103.81,158.74,106.3Z"/><path class="cls-9" d="M238.4,45.31c-.73-1.23-10.52-10.36-5.32-9C233.84,37.46,242.5,46.18,238.4,45.31Z"/><path class="cls-9" d="M231.2,44.66c-1.22-1.21-2.23-2.6-3.42-3.84-.81-.86.6-2.06,1.41-1.19S234.57,45.49,231.2,44.66Z"/><path class="cls-9" d="M227.32,47.93c-1.23-1.2-2.24-2.59-3.42-3.83-.82-.86.6-2.06,1.41-1.19S230.68,48.77,227.32,47.93Z"/><path class="cls-9" d="M223.43,51.21c-1.22-1.2-2.23-2.59-3.42-3.84-.81-.85.6-2,1.41-1.18S226.8,52.05,223.43,51.21Z"/><path class="cls-9" d="M219.55,54.49c-1.22-1.21-2.24-2.6-3.42-3.84-.82-.86.6-2.06,1.41-1.19S222.91,55.32,219.55,54.49Z"/><path class="cls-9" d="M219,61.69c-.72-1.23-10.52-10.36-5.32-8.95C214.41,53.84,223.08,62.57,219,61.69Z"/><path class="cls-9" d="M211.78,61c-1.22-1.2-2.24-2.59-3.42-3.84-.82-.85.6-2.05,1.41-1.18S215.14,61.88,211.78,61Z"/><path class="cls-9" d="M207.89,64.32c-1.22-1.21-2.23-2.6-3.42-3.84-.81-.86.6-2.06,1.41-1.19S211.26,65.15,207.89,64.32Z"/><path class="cls-9" d="M204,67.6c-1.22-1.21-2.24-2.6-3.42-3.84-.82-.86.6-2.06,1.41-1.19S207.37,68.43,204,67.6Z"/><path class="cls-9" d="M200.12,70.87c-1.22-1.2-2.23-2.59-3.42-3.84-.81-.85.6-2,1.41-1.18S203.49,71.71,200.12,70.87Z"/><path class="cls-9" d="M199.55,78.07c-.73-1.22-10.52-10.35-5.32-8.95C195,70.23,203.65,79,199.55,78.07Z"/><path class="cls-9" d="M192.35,77.43c-1.22-1.21-2.23-2.6-3.42-3.84-.81-.86.6-2.06,1.41-1.19S195.72,78.26,192.35,77.43Z"/><path class="cls-9" d="M188.47,80.7c-1.22-1.2-2.24-2.59-3.42-3.83-.82-.86.6-2.06,1.41-1.19S191.83,81.54,188.47,80.7Z"/><path class="cls-9" d="M184.58,84c-1.22-1.2-2.23-2.59-3.42-3.84-.81-.85.6-2,1.41-1.19S188,84.82,184.58,84Z"/><path class="cls-9" d="M180.7,87.26c-1.22-1.21-2.24-2.6-3.42-3.84-.82-.86.6-2.06,1.41-1.19S184.06,88.09,180.7,87.26Z"/><path class="cls-9" d="M180.12,94.46c-.72-1.23-10.51-10.36-5.32-8.95C175.56,86.61,184.23,95.33,180.12,94.46Z"/><path class="cls-9" d="M54.6,218.75c6.86-2.32,13.27-6.72,17.13-12.9,1.88-3,4.37-5.6,6.52-8.4,2.37-3.06,4.74-6.11,7.08-9.19a161.17,161.17,0,0,0,12.61-18.92c1.87-3.35,3.74-6.75,4-10.65.24-3.62,1.18-7.14,1.36-10.78.32-6.57-.85-14.55-5.08-19.85a7.73,7.73,0,0,0-4-3c-1.91-.46-3.62,1-5.19,1.9-3.29,1.92-5.18,4.9-7,8.13-3.65,6.33-6.64,13-10.4,19.29a70.34,70.34,0,0,1-6.33,8.9,25.87,25.87,0,0,0-2.61,3.94,18.52,18.52,0,0,1-3,3.79c-5.88,6.1-13,10.8-19.89,15.7-7.6,5.43-15.07,11.12-22.88,16.23-1,.63-2.08-.68-1.14-1.41,7-5.42,14.38-10.36,21.57-15.5,6.65-4.73,13.59-9.26,19.5-14.92a23.89,23.89,0,0,0,4-4.54A36.63,36.63,0,0,1,63.93,162a68.27,68.27,0,0,0,6.66-9.52c4-6.83,7.13-14.17,11.37-20.86a19.4,19.4,0,0,1,7.27-6.81c2.74-1.58,5-2.33,7.82-.4,5.33,3.62,7.38,11.64,8,17.66a43.39,43.39,0,0,1-.34,10.74c-.28,1.83-.73,3.61-.86,5.46a19.75,19.75,0,0,1-1.21,5.88,71.17,71.17,0,0,1-5.28,10c-2.1,3.54-4.42,6.94-6.84,10.26-2.69,3.68-5.52,7.25-8.34,10.82s-5.69,6.73-8.28,10.25a44.56,44.56,0,0,1-3.55,4.87,30.16,30.16,0,0,1-4.4,3.81,35.62,35.62,0,0,1-11.12,5.22C54.44,219.47,54.25,218.87,54.6,218.75Z"/><path class="cls-9" d="M168.89,114.48c1.54-1.93,3.6-2.84,5.42-4.42s3.14-3.93,5.29-5.34a11.37,11.37,0,0,1,12.17-.25,12.31,12.31,0,0,1,5.42,12.45c-.84,5.28-4.37,9.88-7.94,13.67-3.82,4-8.53,7-12.38,11-4.2,4.36-8.48,8.62-13,12.66s-9.38,8-14.28,11.71c-2.38,1.81-4.77,3.59-7.25,5.26a31.5,31.5,0,0,0-2.8,2.06,32.77,32.77,0,0,0-2.93,3.19,70.22,70.22,0,0,1-7.29,6.25q-4,3.3-8.11,6.55c-2.45,1.95-5,4.53-7.77,6a4.28,4.28,0,0,1-1.71.43,6.73,6.73,0,0,0-2.63,1c-.71.39-1.21-.65-.7-1.14a5.14,5.14,0,0,1,3.34-1.65c2-.31,4-2.64,5.47-3.85q6.69-5.44,13.26-11a36.9,36.9,0,0,0,5.29-5,22.5,22.5,0,0,1,5.39-4.71c4.39-3,8.57-6.26,12.7-9.59q6.54-5.25,12.63-11c4-3.76,7.57-8,11.66-11.58s8.09-6.46,11.48-10.56c3.2-3.87,6.38-8.64,5.4-13.91a9.7,9.7,0,0,0-13.35-7.22c-2.43,1.07-3.84,3.15-5.68,4.93s-4.41,3-6.51,4.66C169.12,115.34,168.58,114.86,168.89,114.48Z"/><path class="cls-9" d="M137.12,174.46a198.74,198.74,0,0,1,18-13.2,30,30,0,0,0,4-3.1,7.06,7.06,0,0,1,3.38-1.56,13.84,13.84,0,0,1,8,1,15.33,15.33,0,0,1,8.89,13.25c.45,6.28-1.91,12.23-5.55,17.25-4.08,5.63-9.48,10.11-14.46,14.91-5.43,5.22-10.62,10.79-16.29,15.73-4.18,3.65-9.77,6.46-15.15,3.56-4.94-2.65-7.32-8.26-6.92-13.7.53-7.17,5.14-13.49,9.93-18.54,2.58-2.72,5.83-4.33,8.84-6.54a29.92,29.92,0,0,1,9.53-5.12c.59-.17,1,.77.5,1.11-2.47,1.58-5.08,2.93-7.47,4.63s-4.45,3.22-6.86,4.61-4.52,4.15-6.28,6.39a33.64,33.64,0,0,0-4.57,7.47c-2.22,5.21-2.45,11.51,1.66,15.86,4.38,4.66,10.16,3,14.59-.6,4.89-4,9.25-8.8,13.77-13.22s9.25-8.51,13.53-13.09c4.06-4.36,7.76-9.33,8.94-15.3,1.07-5.46,0-11.7-4.52-15.34a12.59,12.59,0,0,0-9.06-2.76,6.11,6.11,0,0,0-4,2,22.92,22.92,0,0,1-4,2.74c-6.1,3.88-12.13,7.92-18,12.14A.35.35,0,0,1,137.12,174.46Z"/><path class="cls-9" d="M164.36,195.74c3.29-3.12,9.44-2,13.43-1.2,4.46.85,9.05,3.12,10.74,7.62s.78,10-.9,14.43a38.13,38.13,0,0,1-9.07,13.11,127.23,127.23,0,0,1-12.84,10.92q-3.53,2.72-7.19,5.23a55.15,55.15,0,0,1-6.58,4.26c-4.12,2-8.27-.37-10.79-3.8a8.09,8.09,0,0,1-1.77-5.24c.16-2.35,1.85-4.57,2.85-6.64,5.15-10.65,14.28-19.81,26-22.79,1-.26,1.58,1.48.55,1.81a39.92,39.92,0,0,0-21.45,16,50,50,0,0,0-3.56,6.24c-.85,1.75-2.51,3.9-2.46,5.9.1,3.81,5.19,8.48,9,7.07a26.31,26.31,0,0,0,5.54-3.45c2.07-1.42,4.12-2.87,6.13-4.37q5.68-4.26,11-9c6.7-6.06,13.27-13.59,14-23,.42-5.1-1.46-9.43-6.35-11.52a31.09,31.09,0,0,0-8.48-1.87c-2.48-.3-5.11-.66-7.21,1C164.47,196.84,163.93,196.14,164.36,195.74Z"/><path class="cls-9" d="M50.42,158.48c-5.64,5.94-11.58,11.57-17.14,17.59s-10.74,12.16-15.69,18.58S7.85,207.88,3.44,214.81c-4.13,6.48-7.83,13.21-12,19.66-4.53,7-9.63,13.76-16.7,18.35-.64.41-1.37-.43-.76-.94,11.84-10,18.75-23.62,26.86-36.54a274,274,0,0,1,29.38-38.68c6-6.64,12.42-13.31,19.53-18.82C50.15,157.53,50.8,158.08,50.42,158.48Z"/><path class="cls-9" d="M166,118.35c-4.26,4.72-9.5,8.77-14.45,12.75q-8,6.45-16.33,12.51-8.16,6-16.56,11.63-4.14,2.79-8.32,5.53c-2.63,1.71-5.33,3.93-8.24,5.12a.79.79,0,0,1-.82-1.33c2.42-2.21,5.72-3.82,8.47-5.62s5.36-3.54,8-5.34q8.24-5.58,16.27-11.44c5.35-3.91,10.63-7.93,15.79-12.08s10-8.69,15.3-12.56C165.7,117.14,166.53,117.81,166,118.35Z"/><path class="cls-9" d="M140.91,245.4l1-.79.33,1.12c-1.1,0-2.42,2.22-3.06,3s-1.43,1.68-2.11,2.55c-1.27,1.61-2.2,3.52-3.66,5s-3.34,2.59-4.9,4l-6.14,5.49q-11.85,10.51-24.21,20.43c-7.71,6.15-15.53,12.5-24.19,17.28s-18.43,6.51-27.81,9.6a108.11,108.11,0,0,0-15,6.2c-5,2.51-9.54,5.57-14.24,8.54-1,.6-2.07-.66-1.14-1.41,7.5-6.1,16.82-10.59,25.83-13.95C51,308.9,61.13,307.44,70.17,303c9.3-4.53,17.51-11.26,25.57-17.66,8.55-6.78,16.84-13.88,25.1-21q3.24-2.81,6.48-5.64c2-1.78,4.49-3.13,6.07-5.34a56.57,56.57,0,0,1,4.86-6.17c1.12-1.18,2.47-3.19,4.3-2.69a.64.64,0,0,1,0,1.17l-1.23.43C140.92,246.25,140.52,245.71,140.91,245.4Z"/><path class="cls-9" d="M68.72,212.07a66.3,66.3,0,0,1,.35,24.8c-1.31,7.8-3.49,16.48-8.29,22.91a.61.61,0,0,1-1.05-.58c1.28-3.73,3-7.31,4.26-11a74.21,74.21,0,0,0,3.06-11.83,90,90,0,0,0,.71-24.09A.49.49,0,0,1,68.72,212.07Z"/><path class="cls-9" d="M41.5,165.81C58,148.17,70.09,127,87,109.71a234.06,234.06,0,0,1,27.55-24,51.28,51.28,0,0,1,7-4.66c2.75-1.44,5.74-2.44,8.58-3.69a135.56,135.56,0,0,0,16.4-8.75c4.38-2.71,10.45-.64,14.07,2.57A12.62,12.62,0,0,1,164.7,84c-.23.91-1.77.53-1.61-.4a12.09,12.09,0,0,0-4.86-11.73,14.3,14.3,0,0,0-6.75-2.56c-2.93-.36-4.88,1.61-7.23,3a129.8,129.8,0,0,1-16,7.83,53.8,53.8,0,0,0-8,3.73c-2.31,1.44-4.46,3.12-6.65,4.74a209.5,209.5,0,0,0-25.79,22.65c-7.81,8.07-14.56,17-21.29,25.92C58.81,147.32,51.1,157.36,42,166.26,41.7,166.52,41.24,166.09,41.5,165.81Z"/><path class="cls-9" d="M135.75,102.41a10.24,10.24,0,0,0,6,2.51,11.74,11.74,0,0,0,3.13-.15,11.33,11.33,0,0,0,1.52-.4c.56-.18,1.16-.21,1.72-.39.38-.12.86.29.54.66a6.31,6.31,0,0,1-1.31,1.27,6.72,6.72,0,0,1-1.91.69,9.23,9.23,0,0,1-9.8-4Z"/><path class="cls-9" d="M141.54,106c-2.77,3.88-6.33,7.34-9.57,10.81s-6.42,6.86-9.91,10a12.1,12.1,0,0,1-9.4,3.4c-3-.18-6.22-1.17-7.78-3.93a.3.3,0,0,1,.45-.37,12.87,12.87,0,0,0,9.11,2.69c4-.31,6.29-3,9-5.55,3.08-2.91,6-6,9-9,2.76-2.89,5.48-6.06,8.66-8.48A.33.33,0,0,1,141.54,106Z"/><path class="cls-9" d="M116.5,130.05a47.75,47.75,0,0,1-5.5,6.61,32.49,32.49,0,0,1-3.1,2.64c-.56.42-1.13.83-1.7,1.23s-1.34,1.12-2.14,1.09a.71.71,0,0,1-.58-1c.25-.68,1.09-1,1.66-1.44s1.14-.81,1.69-1.24c1-.81,2.07-1.66,3-2.56a44.72,44.72,0,0,0,5.45-6.21A.72.72,0,0,1,116.5,130.05Z"/><path class="cls-9" d="M165.13,134.47a16.52,16.52,0,0,0,9.25,1.85,14.2,14.2,0,0,0,4.5-1.14A13.78,13.78,0,0,0,181,134a5.36,5.36,0,0,1,2-1.12.63.63,0,0,1,.72.69,3.47,3.47,0,0,1-1.52,1.94,12.29,12.29,0,0,1-2.33,1.35,15.69,15.69,0,0,1-5.21,1.37,12.8,12.8,0,0,1-9.83-3.26C164.65,134.76,164.82,134.31,165.13,134.47Z"/><path class="cls-9" d="M133.55,166.38a11.54,11.54,0,0,0,6.16,2.57c2.28.17,4.39-.57,6.55-1.21.51-.16,1,.6.6,1a4.87,4.87,0,0,1-1.45,1.22,10.27,10.27,0,0,1-1.95.69,10.55,10.55,0,0,1-4,.21,10.42,10.42,0,0,1-6.87-3.5A.68.68,0,0,1,133.55,166.38Z"/><path class="cls-9" d="M99.35,184.43c.87,1,1.79,1.95,2.66,2.94s1.67,2,2.54,2.92,1.77,1.88,2.69,2.79c.45.45.92.88,1.38,1.32s1.08,1.06.94,1.77a.76.76,0,0,1-.6.63c-.71.18-1.34-.4-1.81-.86s-.91-1-1.35-1.45c-.91-1-1.79-2-2.65-3.07s-1.69-2-2.42-3.14-1.4-2.28-2-3.44C98.46,184.44,99.07,184.1,99.35,184.43Z"/><path class="cls-9" d="M123.57,159.11a3.39,3.39,0,0,1-.84,0,2.91,2.91,0,0,1-1-.45,7.82,7.82,0,0,1-1.36-1.07,7.05,7.05,0,0,1-1-1.17,5,5,0,0,1-.8-1.88,1.21,1.21,0,0,1,.84-1.32,1.18,1.18,0,0,1,1.43.64c.1.31.21.62.29.93-.11-.4,0,0,0,.11l.13.33a6,6,0,0,0,.31.62c.12.21-.08-.12,0,0l.1.15.21.3a5.59,5.59,0,0,0,.45.52l.13.13c.15.15-.16-.14,0,0l.27.24a5.22,5.22,0,0,1,.7.54c.14.16.26.34.41.5A.56.56,0,0,1,123.57,159.11Z"/><path class="cls-9" d="M98,184.48a25.69,25.69,0,0,0-4.79-4.41c-.69-.48.13-1.58.77-1a23.05,23.05,0,0,1,2.47,2.37,19,19,0,0,1,2,2.7C98.7,184.42,98.29,184.78,98,184.48Z"/><path class="cls-9" d="M148.43,170.9a8.6,8.6,0,0,0,.7-1.85l.91.5a50.56,50.56,0,0,1-3.81,3.94c-1.36,1.39-2.6,2.89-3.82,4.41a49.29,49.29,0,0,0-3.26,4.58c-.5.79-1,1.57-1.52,2.35s-.82,1.66-1.68,2a.58.58,0,0,1-.79-.42,3.71,3.71,0,0,1,.7-2.53,29,29,0,0,1,1.41-2.57,51.6,51.6,0,0,1,3.48-4.81,44.25,44.25,0,0,1,3.93-4.17,18.8,18.8,0,0,1,4.73-3.55.53.53,0,0,1,.54.89,9.36,9.36,0,0,0-1.4,1.34Z"/><path class="cls-9" d="M117.36,198.83a9.11,9.11,0,0,1,1.13,2.3,24.65,24.65,0,0,0,1.19,2.42,21.15,21.15,0,0,0,1.39,2.14,19.9,19.9,0,0,1,1.63,2.23c.4.74-.61,1.47-1.24,1a8.11,8.11,0,0,1-1.8-2.19,24.85,24.85,0,0,1-1.41-2.46,23.31,23.31,0,0,1-1-2.48,6,6,0,0,1-.5-2.76A.38.38,0,0,1,117.36,198.83Z"/><path class="cls-9" d="M151.06,222.3a28.67,28.67,0,0,1,6-10.42,44.45,44.45,0,0,1,4.2-4.26c.75-.66,1.53-1.29,2.33-1.9s1.56-1.29,2.55-.9a.72.72,0,0,1,.44.72c0,1-.89,1.44-1.57,2s-1.5,1.16-2.22,1.78a38.81,38.81,0,0,0-4.16,4.15,89.38,89.38,0,0,0-6.73,9.33C151.56,223.22,150.92,222.78,151.06,222.3Z"/><path class="cls-9" d="M141.21,226a6,6,0,0,1,1.95,1.3,8.73,8.73,0,0,1,1.3,1.82,8.87,8.87,0,0,1,.79,2.12,6.85,6.85,0,0,1,.16,1,1.9,1.9,0,0,1,0,.92,3.87,3.87,0,0,1-.34.55.78.78,0,0,1-1.33-.14l-.22-.37a1.44,1.44,0,0,1-.08-.62h0a5.32,5.32,0,0,0-.1-1,3.4,3.4,0,0,0-.09-.46l-.06-.23c-.07-.29,0,.09,0-.08a7.17,7.17,0,0,0-.36-.91,5.71,5.71,0,0,0-.92-1.46,11.79,11.79,0,0,0-1.26-1.38.65.65,0,0,1-.17-.81A.63.63,0,0,1,141.21,226Z"/><polygon class="cls-9" points="72.42 254.09 72.48 253.72 72.59 253.64 72.67 253.74 72.65 254.11 72.53 254.22 72.42 254.09"/></g></svg>