<svg id="PRINT" xmlns="http://www.w3.org/2000/svg" viewBox="0 0 386.37 328.58"><defs><style>.cls-1{fill:#c8eff9;}.cls-2{fill:#95e5d8;}.cls-3{fill:#72bec7;}.cls-4{fill:#bde2fa;}.cls-5{fill:#def3ff;}.cls-6{fill:#7d9dcc;}.cls-11,.cls-7{fill:#fff;}.cls-8{fill:#e8f2fc;}.cls-9{fill:#20bfe1;}.cls-10,.cls-11{font-size:6.51px;font-family:Roboto-Bold, Roboto;font-weight:700;}.cls-10,.cls-14{fill:#00318b;}.cls-12{fill:#27559b;}.cls-13{fill:#3b6bb2;}</style></defs><circle class="cls-1" cx="158.1" cy="165.07" r="154"/><path class="cls-2" d="M430.34,255.81a155.12,155.12,0,0,1-6.6,21.85c-14.37,37.43-37.37,50.92-37.37,50.92S352.49,303.9,339.7,298.9a143,143,0,0,1-16.79-8.41c-4.81-2.66-10.26-4.85-14.61-8.24-2.11-1.67-4.6-2.4-7.07-3.39a96.31,96.31,0,0,1-9-4.17c-.93-.48-1.86-1-2.79-1.51-2-1.05-3.9-2.13-5.85-3.2s-3.74-2.53-5.73-3.74c-15.67,0-23.32-12.88-41.36-18.12s-37.09-4.26-44.36-2.94a55.06,55.06,0,0,1-5.74.64c-5.18.36-10.39.46-15.6.51a31,31,0,0,0-3.61.1c-1,.13-1.85.5-2.79.67-3.14.55-6.36-.15-9.54.48a59.34,59.34,0,0,0-8.32,2.7,60.23,60.23,0,0,1-13,3.06,19.74,19.74,0,0,1-7.35-.15,11,11,0,0,1-1.34-.43A9.24,9.24,0,0,1,122,251c-1.85-1.73-1.21-3.74-1.28-6.17-.13-4.58,9.1-13.16,20.67-21s22.69-6.22,40.87-7.09,27.1-10,27.1-10l-22.08-16s-8.77-7-11.21-14.42,4-11.6,4-11.6-7.72-8.88-6.5-13.1.69-8.79,11.11-12.65a176,176,0,0,1,21.86-6.26s-11-1.57-16.28-3-13.82-7.43-13.82-7.43-2.62,2.33-15.43.82-25.57-6.9-25.57-6.9-22.17,6.44-28.09,5.65-14.79-6.66-12.13-13.53,9.52-4.17,17.62-5.58S142.58,93,142.58,93s31,1.07,51.29.8,24.59,11,51.67,11.68,26.21,4.26,30.38,6.38,11.53,20,22.25,33c3.83,4.68,7.52,9.46,11.25,14.22,1.48,1.92,3,3.55,3.85,5.79,1.09,2.9,3.6,5.48,5.43,8l12.79,17.38c.67.93,1.35,1.84,2,2.77,7,9.53,14,19.07,22.21,27.6a11.15,11.15,0,0,0,3.85,2.95c1.77.69,3.75.49,5.66.57,4.1.17,7.94,1.72,11.65,3.57,1.13.58,2.26,1.18,3.38,1.77q9.5,5.09,19,10.16l9.51,5.08c2.86,1.52,5.87,3.67,9,4.57,2,.59,3.89,1.92,5.76,2.91C425.79,253.46,428.06,254.65,430.34,255.81Z"/><path class="cls-3" d="M95,109c1.35,1.56,4.51,1.94,6.3,2.53a39.26,39.26,0,0,0,8.17,1.82,40.93,40.93,0,0,0,16.6-1.66,38.42,38.42,0,0,0,14.45-8.26l-.3,7a72.76,72.76,0,0,0,44.7,2c-1.39,1.3-.9,3.76.49,5.06s3.36,1.73,5.22,2.12l47.56,9.85a14.71,14.71,0,0,1,5.43,1.89,5,5,0,0,1,2.34,4.93,46.76,46.76,0,0,0-34.52-4,14.07,14.07,0,0,1-5.56.88,18.32,18.32,0,0,1-4.82-1.87c-6.77-3-15.27-1.95-21-6.64a9.61,9.61,0,0,0-2.26-1.61,7.06,7.06,0,0,0-3.17-.22,87,87,0,0,1-36.29-5,11.21,11.21,0,0,0-3.48-.88,11.79,11.79,0,0,0-4.2,1,46.85,46.85,0,0,1-15.77,2.78,59.52,59.52,0,0,1-8-.51,30.71,30.71,0,0,1-7.11-1.49A8.29,8.29,0,0,1,95,109Z"/><path class="cls-3" d="M210.86,132.36a14.66,14.66,0,0,1,8.92,4.94q-14.64,2.16-29.06,5.6a14.45,14.45,0,0,0-5.5,2.19c-4.68,3.6-3.29,11-.44,16.23A91.72,91.72,0,0,0,192,172l18.72,25.1c1.65,2.22,3.91,4.69,6.64,4.2,1.8-.33,2.77-1.85,4.15-2.87a16.05,16.05,0,0,0,3.3-3.48,174.93,174.93,0,0,0,19.93-33.13c1.88-4.08,3.61-8.31,4.07-12.78s-.5-9.26-3.49-12.61a18.47,18.47,0,0,0-8.49-5,26.64,26.64,0,0,1-4.68-1.42c-2.92-1.53-5.86-1.91-9.2-2.35Z"/><path class="cls-3" d="M184.84,167.53c-1.38,1.65-2.84,3.54-2.67,5.68.15,1.87,1.53,3.38,2.84,4.74l18.71,19.45c2.19,2.27,4.47,4.61,7.4,5.76s6.72.77,8.64-1.73c-4.3.34-8.27-2.35-11.22-5.5s-5.31-6.86-8.64-9.59Z"/><path class="cls-3" d="M423.74,277.66c-14.37,37.43-37.37,50.92-37.37,50.92S352.49,303.9,339.7,298.9a143,143,0,0,1-16.79-8.41c-4.81-2.66-10.26-4.85-14.61-8.24-2.11-1.67-4.6-2.4-7.07-3.39a96.31,96.31,0,0,1-9-4.17c-.93-.48-1.86-1-2.79-1.51-2-1.05-3.9-2.13-5.85-3.2s-3.74-2.53-5.73-3.74c-15.67,0-23.32-12.88-41.36-18.12s-37.09-4.26-44.36-2.94a55.06,55.06,0,0,1-5.74.64c-5.18.36-10.39.46-15.6.51a31,31,0,0,0-3.61.1c-1,.13-1.85.5-2.79.67-3.14.55-6.36-.15-9.54.48a59.34,59.34,0,0,0-8.32,2.7,60.23,60.23,0,0,1-13,3.06,19.74,19.74,0,0,1-7.35-.15,11,11,0,0,1-1.34-.43,6.13,6.13,0,0,1,.14-3.65C131.73,232,152,224.53,170.37,223s37.4.85,54.74-5.32c12.61-4.49,22.59-13.22,30-24.22a39.64,39.64,0,0,1,4.23-4.55c3.76-4,6.93-9.45,13.24-9a14.29,14.29,0,0,1,5.36,1.69c7.57,3.8,13.51,10.12,19.46,16.17q15.83,16.15,33.1,30.85a68.57,68.57,0,0,0,12.46,9c5.63,3,12,4.52,17.42,7.85,5.11,3.12,9.17,7.68,14.06,11.12s10.71,5.77,16.38,8Z"/><path class="cls-4" d="M106.66,123.09c-1.86-.09-4.28.2-4.73,2a4.13,4.13,0,0,0,0,1.64c.36,2.09.74,4.17,1.16,6.25a3.4,3.4,0,0,0,4.58,3.32l25.69-2.51a3.69,3.69,0,0,0,2.43-.85,3.52,3.52,0,0,0,.63-2.48c0-1.27-.08-2.53-.21-3.8a10.58,10.58,0,0,0-2-6c-1.38-1.62-4-2.37-5.7-1.09Z"/><path class="cls-5" d="M112.57,135.34a2.39,2.39,0,0,1-3.25-.44c-.95-1.08-.87-2.4-1.15-3.7a8.65,8.65,0,0,1-.13-1.14c-.06-.91-.11-1.83-.17-2.74a7.23,7.23,0,0,1,0-1.74,3.66,3.66,0,0,1,2-2.59c-.1,0-.49-.1-.61-.11s-.5-.06-.76-.08a3.9,3.9,0,0,0-1.23.12,30.05,30.05,0,0,1-3,.42,2.2,2.2,0,0,0-1,.3c-.67.47-.62,1.46-.5,2.26l1.41,9.53a1.61,1.61,0,0,0,.23.75,1.67,1.67,0,0,0,1.5.5,10.5,10.5,0,0,0,4.78-1.42Z"/><path class="cls-6" d="M113.66,122.17c-.48,0-1.1-.45-1.36.16s.64,1,1.18,1.13a11.64,11.64,0,0,0,2.89.07,31.4,31.4,0,0,1,3.36,0,8.48,8.48,0,0,1,3.44.53,6.15,6.15,0,0,1,2.21,2.15,2.81,2.81,0,0,1,.89,2.12c-.2,2-1.67,3.1-3.47,3.6-6.17,1.74-12.86.3-19.11,1.75a1.24,1.24,0,0,0-.56.22,1,1,0,0,0,.05,1.43,4.94,4.94,0,0,0,2.78,1.13,16.1,16.1,0,0,0,4.09-.36c6.47-1.15,13-2.33,19.56-2.14a10.65,10.65,0,0,0,4.14-.37,3.14,3.14,0,0,0,2.16-3.2c.07.35-2.85.25-3.42-.07a1.37,1.37,0,0,1-.65-.84,20.09,20.09,0,0,1-.65-3.86,2.12,2.12,0,0,1,.15-1.39,2,2,0,0,1,1.6-.68c.71-.06,1.75-.15,1.89-1s-.45-1.26-.74-1.86-.2-.84-.93-.8c-.52,0-1,.08-1.54.14-1,.12-2.06.29-3.09.4l-5.14.6-4,.48C117.52,121.73,115.58,122.09,113.66,122.17Z"/><path class="cls-7" d="M107.72,136.31l25.69-2.51a5.71,5.71,0,0,0,1.48,5.88c2.7,2.5,8,3.39,10.51,11.36s6.31,56.3,7.17,61.64,1.42,10.06-9.12,11.1-27.26,3.27-30.32,3.2-4.86-1.93-6.14-7.38-6.75-58.35-6.67-63.15a16,16,0,0,1,5.18-11.29c2.72-2.58,3.54-5.17,2.22-8.85"/><path class="cls-4" d="M113,223c5.84,1,11.82.14,17.68-.73l16.53-2.45a47.65,47.65,0,0,1-5.69,3.63,9.86,9.86,0,0,1-2.11.92,11.44,11.44,0,0,1-2.8.29,109.43,109.43,0,0,0-15,1.45,13.65,13.65,0,0,1-4.67.28,4.33,4.33,0,0,1-3.5-2.76Z"/><path class="cls-6" d="M108.17,165.7c-1,.23-2.12.41-2.77-.33a2.78,2.78,0,0,1-.5-1.51l-.74-6.17a7.94,7.94,0,0,1,2-6.27,9.43,9.43,0,0,1,3.2-1.91,16.42,16.42,0,0,1,4.08-1.29,15.1,15.1,0,0,1-1.77-.06,7,7,0,0,0-1.88.19c-.35.1-.64.31-1,.41-.62.16-1.28.22-1.91.32-1.46.25-3.32.31-4-1-2,1.2-2.84,3.86-3,6.09-.12,1.42-.17,2.85-.15,4.27a46.55,46.55,0,0,0,.83,8.41c0-.06,4.19-.72,4.55-.77Z"/><path class="cls-6" d="M130.23,145.7c2,.44,4.06.31,6,.83a5.62,5.62,0,0,1,3.6,2.66,9.77,9.77,0,0,1,.71,1.74c.26.92,1.17,10.39,1.15,10.39l4.76-.15A46.66,46.66,0,0,0,145,151.11a18.49,18.49,0,0,0-2.06-4.66,11,11,0,0,0-3.39-3.7,3.3,3.3,0,0,1-3.4,1.93,23.4,23.4,0,0,0-2.84.57Q131.81,145.55,130.23,145.7Z"/><path class="cls-6" d="M112.12,214.5a2.52,2.52,0,0,0,1.26,2.47,14.8,14.8,0,0,1,2.45,1.65,16.55,16.55,0,0,1-7.18-1,3.36,3.36,0,0,1-1.52-1,1.31,1.31,0,0,1,0-1.66Z"/><path class="cls-6" d="M145.23,210.33a2.87,2.87,0,0,0-.16,1.65,3.92,3.92,0,0,1-3.23,3.84,15.54,15.54,0,0,0,8.62-3,3.7,3.7,0,0,0,1.23-1.32,1.54,1.54,0,0,0-.15-1.7Z"/><path class="cls-4" d="M117,164.59c-.21-2.23-.41-4.45-.62-6.68-.24-2.54-.39-5.37,1.24-7.34,1.42-1.72,3.8-2.25,6-2.67l5.54-1.07c3.41-.66,7.41-1.16,9.93,1.24a9.68,9.68,0,0,1,2.4,5.25,38.79,38.79,0,0,1,.74,8.4Z"/><path class="cls-4" d="M122.39,212.92c.44,1-.32,4.39-1,5.18a126.64,126.64,0,0,0,16.72-1.27,10.79,10.79,0,0,0,5-1.58c1.43-1,2.34-3,1.59-4.64Z"/><path class="cls-7" d="M116.2,156.25a3.93,3.93,0,0,1,2-3.53,10.55,10.55,0,0,1,4-1.29A97.76,97.76,0,0,1,138.29,150a3.14,3.14,0,0,1,2.55.76c.35.42.62,1.09,1.16,1,.38,0,.61-.44.71-.8.95-3.61-4-5.66-6.84-5.49a122.11,122.11,0,0,0-14.84,2.1,11,11,0,0,0-3.35,1c-1.35.74-2,2-3,3.15s-1.47,3.17-1.89,4.71Z"/><path class="cls-7" d="M112.23,148.65l-5.44.65a5.19,5.19,0,0,0-4.63,3.15,4.64,4.64,0,0,0-.76,1.42,1.54,1.54,0,0,0,.35,1.5,1.65,1.65,0,0,0,1.73.18,9.69,9.69,0,0,0,1.55-1,6.43,6.43,0,0,1,3.81-1c.66,0,1.45.12,1.86-.4Z"/><path class="cls-7" d="M139.38,154.28a3.22,3.22,0,0,1-.55,2.9,3.78,3.78,0,0,1-3.14.84,3.14,3.14,0,0,1-2-1.9,2.18,2.18,0,0,1-.15-2,4.16,4.16,0,0,1,.94-1.26A3.1,3.1,0,0,1,139.38,154.28Z"/><path class="cls-6" d="M106.35,148.57c.64.33,1.39-.14,1.91-.64a14,14,0,0,0,3-4.08,4.42,4.42,0,0,0,.55-2.78l-3,.24a.69.69,0,0,0-.32.08.7.7,0,0,0-.21.34c-1,2.59-4.42,3.88-4.89,6.63a1.71,1.71,0,0,0,1.16.31c.39-.09.67-.65.36-.92Z"/><path class="cls-6" d="M133.37,137.85c1.44,2.28,4.15,3.36,6.27,5a.31.31,0,0,1,.14.16.36.36,0,0,1-.14.32,5.19,5.19,0,0,1-4.26,1.52,6.86,6.86,0,0,1-4.1-2.27,19.81,19.81,0,0,1-2.69-4Z"/><path class="cls-4" d="M114.31,148.26a10.56,10.56,0,0,0,2.85-8.44c3.68-.58,8.44-1,12.12-1.54,1.23,3.13,2.8,5.47,6,6.55l-.77.2Z"/><path class="cls-7" d="M130.34,140.32a3.49,3.49,0,0,1,2.08,1c.42.43.91,1.26.64,1.88s-1,.5-1.46.59a3.54,3.54,0,0,1-2.45-.34,2.13,2.13,0,0,1-1.08-1.13C127.77,141,129.23,140.21,130.34,140.32Z"/><path class="cls-8" d="M117,164.59l5.44,48.33,29.15-3.17s-3.93-49.24-5.09-48.74-29.5,3.58-29.5,3.58"/><path class="cls-6" d="M120.49,226.53a35,35,0,0,1-6.26-2.92c-.38-.23-1-.55-1.11-1-.48-1.28,2.09-1.05,2.68-1a36.14,36.14,0,0,0,7.78,0c1.29-.13,2.59-.29,3.88-.47a10,10,0,0,0,1.36-.34,11.81,11.81,0,0,1,1.88-.26c5.28-.75,10.44-2.14,15.69-3.09.44-.09.89-.16,1.34-.24a1.26,1.26,0,0,1,.94.1c.65.48-.09,1.45-.78,1.87l-6.44,3.91a18.78,18.78,0,0,1,7.47-3,6.71,6.71,0,0,0,2.43-.67,3.82,3.82,0,0,0,1.65-3.28,9.65,9.65,0,0,0-.95-3.7c-.11-.25-.25-.53-.52-.59a1,1,0,0,0-.77.3c-3.45,2.75-8.07,3.42-12.44,4l-9.16,1.19a117.77,117.77,0,0,1-12.28,1.16c-3.67.09-7.66-.3-10.36-2.78a26.76,26.76,0,0,0,.34,6.06c.32,1.83.94,3.61,2.61,4.61a3.51,3.51,0,0,0,1.93.45c1,0,1.87.22,2.82.29a20.67,20.67,0,0,0,3.6-.23,8.75,8.75,0,0,1,3.53,0Z"/><rect class="cls-9" x="101.14" y="163.93" width="45.72" height="10.54" transform="translate(-19.25 15.96) rotate(-6.83)"/><text class="cls-10" transform="translate(108.65 191.55) rotate(-6.83)">Coronavirus</text><text class="cls-11" transform="translate(109.69 173.79) rotate(-6.83)">COVID-19</text><text class="cls-10" transform="translate(109.78 197.95) rotate(-6.83)">Vaccine</text><path class="cls-12" d="M110.22,136l-2.81.33a9.75,9.75,0,0,0,1,4.54l2.06-.21A22.19,22.19,0,0,1,110.22,136Z"/><path class="cls-13" d="M110.22,136a22.19,22.19,0,0,0,.25,4.66c6.43-.59,12.86-1.36,19.26-2.24-.19-1.56-.35-2.91-.56-4.68Z"/><path class="cls-12" d="M133,133.26l-3.82.46c.21,1.77.37,3.12.56,4.68,1.36-.19,2.72-.34,4.07-.54Z"/><path class="cls-14" d="M103.61,123.28a2.19,2.19,0,0,0,1.42.27c.65,0,1.28-.13,1.92-.21l3.66-.46c2.49-.32,5-.62,7.48-.95,5-.65,10-1.12,14.93-2.14a.21.21,0,0,0-.05-.42c-5,.17-10,.91-15,1.44l-7.33.83-3.82.44c-.64.07-1.28.14-1.91.25a2.1,2.1,0,0,0-1.32.6A.21.21,0,0,0,103.61,123.28Z"/><path class="cls-14" d="M107,136.86c.12,2.15.76,4.37-.56,6.31a14.25,14.25,0,0,1-2.38,2.34,14.94,14.94,0,0,0-2,2.14,13.64,13.64,0,0,0-2.76,10.83.61.61,0,0,0,.49.5.41.41,0,0,0,.43-.11.58.58,0,0,0,.23-.53A13,13,0,0,1,104,147.09c1.4-1.45,3.4-2.57,4.19-4.51a7.88,7.88,0,0,0-.38-5.93A.42.42,0,0,0,107,136.86Z"/><path class="cls-14" d="M99.45,157.86a53.54,53.54,0,0,0,.5,6.43q.36,3.12.7,6.25c.47,4.21,1,8.43,1.5,12.64q1.5,12.57,3,25.13c.28,2.34.57,4.69.85,7a35.47,35.47,0,0,0,1.12,7,.39.39,0,0,0,.75-.09,31.67,31.67,0,0,0-.45-6.22l-.75-6.24q-.75-6.33-1.51-12.65c-1-8.37-2-16.75-3-25.12l-.9-7a61.81,61.81,0,0,0-1.13-7.17A.34.34,0,0,0,99.45,157.86Z"/><path class="cls-14" d="M107,219.6a7.35,7.35,0,0,0,2.35,6.75c2,1.55,4.71,1.58,7.06,1.26,3.53-.47,7.08-.77,10.62-1.14l2.91-.31a4.78,4.78,0,0,0,2-.44.48.48,0,0,0-.09-.81,3.54,3.54,0,0,0-1.52,0l-2.29.25-5.7.6c-1.64.17-3.28.35-4.92.55a13.89,13.89,0,0,1-5.67,0,5.09,5.09,0,0,1-3.23-2.73,26.52,26.52,0,0,1-1.07-4C107.36,219.32,107,219.4,107,219.6Z"/><path class="cls-14" d="M132.69,133.67a7.89,7.89,0,0,0,1,5.85c1.23,1.7,3.43,2.31,5.14,3.39A13.05,13.05,0,0,1,145,153a.58.58,0,0,0,.35.46.43.43,0,0,0,.45,0,.61.61,0,0,0,.36-.61,13.67,13.67,0,0,0-5.24-9.87,15.14,15.14,0,0,0-2.44-1.61,14.89,14.89,0,0,1-2.78-1.63c-1.81-1.57-1.73-3.91-2.13-6.08A.43.43,0,0,0,132.69,133.67Z"/><path class="cls-14" d="M145.19,152.37a51.58,51.58,0,0,0,.51,6.44l.69,6.24c.48,4.22,1,8.43,1.5,12.65q1.5,12.56,3,25.12.43,3.52.85,7a36.21,36.21,0,0,0,1.12,7,.4.4,0,0,0,.76-.1,32.42,32.42,0,0,0-.46-6.21l-.75-6.25q-.75-6.31-1.51-12.64c-1-8.37-1.95-16.76-3-25.12l-.9-7a57.8,57.8,0,0,0-1.13-7.17A.34.34,0,0,0,145.19,152.37Z"/><path class="cls-14" d="M152.69,214.12c-.06,1.19.13,2.37,0,3.56a5.07,5.07,0,0,1-1.78,3.44c-1.66,1.37-3.79,1.62-5.85,1.85-3.46.39-6.91.89-10.36,1.35l-2.66.35a4.32,4.32,0,0,0-1.78.43.47.47,0,0,0,.09.8,3.8,3.8,0,0,0,1.71,0l2.52-.34,6.1-.82c1.6-.22,3.21-.44,4.82-.63,2.27-.26,4.64-.7,6.37-2.31,2-1.88,2.35-5.29,1.26-7.74C153,213.88,152.7,213.89,152.69,214.12Z"/><path class="cls-14" d="M104.53,122.45a1.77,1.77,0,0,0-1.61.33,3,3,0,0,0-1,1.63,7.39,7.39,0,0,0,.06,2.48c.1,1,.21,1.92.31,2.87a33.47,33.47,0,0,0,.67,5.2,3.1,3.1,0,0,0,3.07,2.57c.78-.08.85-1.41,0-1.43-1.37,0-1.76-1.29-1.93-2.45s-.33-2.61-.49-3.91-.35-2.62-.49-3.94a2.87,2.87,0,0,1,.17-1.74,3.83,3.83,0,0,1,1.31-1.22A.21.21,0,0,0,104.53,122.45Z"/><path class="cls-14" d="M132.49,119.49a4,4,0,0,1,1.55.88,2.94,2.94,0,0,1,.58,1.65c.18,1.32.3,2.63.45,4s.33,2.6.45,3.91,0,2.49-1.3,2.84c-.78.21-.43,1.49.36,1.38A3.08,3.08,0,0,0,137,131a32.07,32.07,0,0,0-.58-5.34l-.36-2.73a8.21,8.21,0,0,0-.49-2.45,3,3,0,0,0-1.36-1.4,1.78,1.78,0,0,0-1.73,0A.2.2,0,0,0,132.49,119.49Z"/><path class="cls-14" d="M105.37,136.87c.81.54,2.11.19,3,.09l3.81-.46,7.79-.95,15.4-1.87a.51.51,0,0,0-.12-1l-15.41,1.82-7.63.91-3.81.45c-.94.11-2.39.08-3.07.82A.15.15,0,0,0,105.37,136.87Z"/><path class="cls-14" d="M108,141.26a13,13,0,0,0,2.92-.15c1.11-.11,2.22-.25,3.33-.38l6.51-.76,6.35-.77a44.43,44.43,0,0,0,6.4-.91c.22,0,.17-.44-.06-.44a44.22,44.22,0,0,0-6.27.61l-6.5.77-6.35.78c-1.11.14-2.22.26-3.33.41a12.89,12.89,0,0,0-3,.58A.14.14,0,0,0,108,141.26Z"/><path class="cls-14" d="M100.82,166.93a24,24,0,0,0,4.23-.29l4.46-.53,8.94-1.05c6-.7,11.92-1.43,17.87-2.14l5.11-.62a41.63,41.63,0,0,0,5.09-.75.27.27,0,0,0-.07-.54,75,75,0,0,0-8.95.92L128.56,163l-17.86,2.16-5.11.63a26.81,26.81,0,0,0-4.81.78A.19.19,0,0,0,100.82,166.93Z"/><path class="cls-14" d="M106.64,215.5a24,24,0,0,0,4.23-.3l4.46-.53,8.94-1q8.94-1.05,17.87-2.14l5.11-.61a43.69,43.69,0,0,0,5.09-.76.27.27,0,0,0-.07-.54,73,73,0,0,0-9,.93l-8.94,1.06-17.86,2.17-5.11.62a27.74,27.74,0,0,0-4.81.79A.19.19,0,0,0,106.64,215.5Z"/><path class="cls-14" d="M102.57,148c1.14,1.75,3.81,1.27,5.54,1.07,2.86-.32,5.71-.65,8.57-1,5.75-.73,11.49-1.57,17.22-2.45,2.06-.31,5.28-.33,6.26-2.57.16-.35-.36-.68-.59-.35a4.77,4.77,0,0,1-3.34,1.65c-1.65.27-3.31.5-5,.74-3.26.48-6.53.92-9.81,1.34s-6.54.83-9.82,1.21c-1.66.2-3.32.4-5,.57a5.21,5.21,0,0,1-3.67-.61A.3.3,0,0,0,102.57,148Z"/><path class="cls-14" d="M106.66,216.54c1,2.3,4.16,2.72,6.33,2.76a81.9,81.9,0,0,0,10.62-.6c3.57-.39,7.12-.91,10.67-1.4s7.05-.82,10.51-1.51c3.23-.65,6.42-2,7.94-5.09.18-.38-.41-.75-.65-.38-1.61,2.46-4.49,3.7-7.28,4.27-3.2.65-6.49,1-9.73,1.4a182.89,182.89,0,0,1-19.66,2.15,27.21,27.21,0,0,1-4.69-.14,7.85,7.85,0,0,1-3.76-1.69A.2.2,0,0,0,106.66,216.54Z"/><path class="cls-14" d="M123,252.91a10.24,10.24,0,0,1-2-5.41c-.13-.9-.2-1.81-.25-2.71a9.9,9.9,0,0,1,.08-3.17c.52-2,2.32-3.57,3.75-5,1.73-1.7,3.44-3.42,5.26-5a48.94,48.94,0,0,1,11.59-7.78,61,61,0,0,1,13.71-4.29,39.28,39.28,0,0,1,7.31-1.05c2.36,0,4.72.14,7.08.09a109.52,109.52,0,0,0,14.91-1.31,73.42,73.42,0,0,0,14.14-3.71,59.19,59.19,0,0,0,6.36-2.83c1-.53,2-1.17,3-1.64s2.19-.58,3.23-1c2.26-.9,4.46-2,6.63-3.11s4.22-2.15,6.24-3.37a47.24,47.24,0,0,0,5.6-3.92,20.93,20.93,0,0,0,4.87-5.2c.19-.32-.16-.79-.49-.5-1.7,1.45-3.24,3.07-5,4.48a46.45,46.45,0,0,1-5.18,3.6c-3.74,2.25-7.75,4-11.67,5.88a16,16,0,0,1-3.33,1.28,10.78,10.78,0,0,0-2.93,1.23,57.12,57.12,0,0,1-6.5,3.13,69.91,69.91,0,0,1-14.4,4.05,105.73,105.73,0,0,1-15.38,1.44c-2.46.07-4.92-.09-7.39-.07a39.4,39.4,0,0,0-7.31,1,63.6,63.6,0,0,0-13.82,4.28,49.73,49.73,0,0,0-11.71,7.7c-2.06,1.79-4,3.72-5.92,5.63-1.6,1.57-3.44,3.26-4,5.49a10.21,10.21,0,0,0-.18,3.31c.07,1.11.14,2.22.3,3.32a11.61,11.61,0,0,0,2.32,6C122.44,254.47,123.59,253.61,123,252.91Z"/><path class="cls-14" d="M93.1,108.39a12.3,12.3,0,0,0,4.12,9.24c2.76,2.65,6.4,3.72,10.11,4.17,1,.11,2,.18,2.94.29s2,.42,3,.5a22.42,22.42,0,0,0,6.1-.65c2.16-.45,4.29-1,6.44-1.55s4.14-.82,6.14-1.46c3.59-1.14,7.72-4.58,6.47-8.8a.59.59,0,0,0-1.13.13c-.26,3.53-2.6,5.92-5.87,7-1.84.61-3.79.92-5.68,1.36s-3.69.93-5.55,1.35a33.23,33.23,0,0,1-5.61.87,37.85,37.85,0,0,1-5.39-.61c-3.38-.31-6.74-.72-9.6-2.71a13.78,13.78,0,0,1-5.83-9.11C93.7,108.05,93.11,108,93.1,108.39Z"/><path class="cls-14" d="M135,117.17a14.49,14.49,0,0,0,4,1.94c1.46.54,2.94,1,4.44,1.4,3.1.83,6.25,1.38,9.4,1.94s6.54,1.22,9.83,1.75a32.09,32.09,0,0,0,9.63.41c3-.42,6.4-1.54,8.18-4.14.23-.33-.1-.94-.53-.7a23.1,23.1,0,0,1-7.47,3,28.89,28.89,0,0,1-9.09-.25c-3.18-.5-6.35-1.11-9.52-1.67-3-.53-6-1-8.93-1.66a46.43,46.43,0,0,1-4.8-1.27c-1.6-.52-3.12-1.37-4.73-1.79C134.82,116,134.56,116.83,135,117.17Z"/><path class="cls-14" d="M176.19,122.52a7.5,7.5,0,0,0,1.28,1.3,18,18,0,0,0,1.66,1.07c1.13.64,2.33,1.2,3.51,1.75,2.48,1.13,5,2.12,7.6,3,5.12,1.78,10.38,3.13,15.58,4.64,1.08.31,1.8-1.3.71-1.62-5.12-1.48-10.26-2.88-15.33-4.55-2.55-.84-5.08-1.74-7.56-2.8-1.2-.51-2.39-1.06-3.56-1.66-.57-.29-1.15-.56-1.73-.83a12.26,12.26,0,0,0-1.92-.62C176.26,122.17,176,122.36,176.19,122.52Z"/><path class="cls-14" d="M216.31,131.89c-4.61.4-9.18,1.08-13.77,1.72-4.38.6-8.8,1.19-13.12,2.19-3.79.87-7.91,2-11.07,4.37s-4.69,6.31-5.7,10a12,12,0,0,0-.32,5.67,10,10,0,0,0,2.89,5c1.42,1.44,3,2.7,4.49,4s3.11,2.91,4.62,4.41a223.19,223.19,0,0,1,17.22,19.14c2.8,3.49,5.34,7.42,8.91,10.19a14.32,14.32,0,0,0,5.66,2.73,7.62,7.62,0,0,0,5.78-.93c.52-.31.14-1.28-.46-1.13a11.43,11.43,0,0,1-9.81-2.38c-3-2.36-5.15-5.6-7.49-8.56a225.32,225.32,0,0,0-15.92-18c-2.75-2.81-5.55-5.6-8.54-8.17a26.64,26.64,0,0,1-4.15-4,7.38,7.38,0,0,1-1.34-5,19,19,0,0,1,1.39-5.29,15.52,15.52,0,0,1,2.64-4.8c2.45-2.78,6.61-4,10.06-5,4.48-1.24,9.1-1.84,13.66-2.66,4.83-.88,9.67-1.69,14.45-2.8A.34.34,0,0,0,216.31,131.89Z"/><path class="cls-14" d="M241.18,133.21a13.37,13.37,0,0,1,4.64,6.23,18.41,18.41,0,0,1,.4,8.94,75.67,75.67,0,0,1-2.34,8.87q-1.32,4.33-2.91,8.6c-4.06,10.82-9.37,21.67-17.48,30.06a49.81,49.81,0,0,1-6.86,5.87,37.69,37.69,0,0,1-3.9,2.47c-.67.36-1.36.7-2,1.05s-1.23.79-1.85,1.18c-.38.23-.1.86.32.79a15.34,15.34,0,0,0,1.91-.37,15,15,0,0,0,2.1-.92,39.59,39.59,0,0,0,3.55-2,40.91,40.91,0,0,0,6.78-5.31,64.24,64.24,0,0,0,10.75-13.85,106.57,106.57,0,0,0,8.16-17.12q1.68-4.46,3.05-9a75.16,75.16,0,0,0,2.38-9.19,19.62,19.62,0,0,0-.69-10.36c-1-2.63-2.94-5.43-5.75-6.32C241.18,132.77,241,133.05,241.18,133.21Z"/><path class="cls-14" d="M179.35,164a16.33,16.33,0,0,0-5.1,10.25c-.23,3.78,1.54,6.94,4.23,9.45s6,4.42,8.76,7a127.49,127.49,0,0,0,9.84,8.89,65.26,65.26,0,0,0,5.81,4.09c1,.64,2.09,1.24,3.15,1.83a7.44,7.44,0,0,0,3.29,1.16.38.38,0,0,0,.36-.6c-1.13-1.58-3.25-2.46-4.84-3.51s-3.32-2.19-4.93-3.37a81.42,81.42,0,0,1-9.22-7.88,61.27,61.27,0,0,0-4.58-4.25c-1.31-1-2.7-2-4-3-2.69-2-5.46-4.32-6.05-7.82-.72-4.32,1.65-8.2,4-11.58C180.36,164.26,179.79,163.57,179.35,164Z"/><path class="cls-14" d="M198,160.53a69,69,0,0,0,8.62,3.19,35.44,35.44,0,0,0,8.63,1.79,15.77,15.77,0,0,0,7.27-1.27c2.06-.92,4.29-2.45,5.05-4.67a.65.65,0,0,0-1.1-.65,15.08,15.08,0,0,1-5.28,4,15.4,15.4,0,0,1-6.87.84c-5.52-.48-10.72-2.8-16.16-3.76A.29.29,0,0,0,198,160.53Z"/><path class="cls-14" d="M209.53,141.7a127.34,127.34,0,0,1,12,10.89c3.25,3.37,6.33,8.22,11.23,9.22,2.35.47,5.17-.07,6.47-2.26.45-.76-.65-1.43-1.27-1a6.1,6.1,0,0,1-5.36,1.11,12.16,12.16,0,0,1-5.3-3.65c-1.68-1.73-3.27-3.53-5-5.23s-3.58-3.33-5.47-4.88A69.2,69.2,0,0,0,210,141C209.6,140.76,209.1,141.35,209.53,141.7Z"/><path class="cls-14" d="M219.86,185.31a44.75,44.75,0,0,0,4-5.25,40.93,40.93,0,0,1,4.54-5.13,20.59,20.59,0,0,1,5.46-3.78,18.79,18.79,0,0,1,2.94-1.08c.91-.25,2.19-.24,2.83-1a.5.5,0,0,0-.08-.7c-.77-.74-2.19-.39-3.12-.18a14.65,14.65,0,0,0-3.2,1.12,22.19,22.19,0,0,0-5.73,4,33.43,33.43,0,0,0-4.46,5.4,28.05,28.05,0,0,0-3.57,6.33C219.43,185.22,219.67,185.49,219.86,185.31Z"/><path class="cls-14" d="M220.61,165c.2.06.33.19.53.25s.51.12.75.21a7,7,0,0,1,1.34.59,9.11,9.11,0,0,1,3.89,4.34,7.82,7.82,0,0,1,.45,1.42,7.44,7.44,0,0,0,.3,1.63.78.78,0,0,0,1.42,0,3.3,3.3,0,0,0-.07-1.84,10.09,10.09,0,0,0-.57-1.71A9.85,9.85,0,0,0,226.6,167a8.86,8.86,0,0,0-2.79-1.9,9,9,0,0,0-1.6-.5,7.18,7.18,0,0,0-.81-.12,2.93,2.93,0,0,0-.73.12C220.46,164.64,220.38,165,220.61,165Z"/><path class="cls-14" d="M215.27,138.42a5.87,5.87,0,0,0,2.12,1.24c.84.4,1.7.77,2.54,1.19a54.82,54.82,0,0,1,4.8,2.67c3.14,2,6,4.41,9,6.62a.56.56,0,0,0,.79-.77,20.23,20.23,0,0,0-1.86-2.27,24.54,24.54,0,0,0-2.07-1.88,40.78,40.78,0,0,0-4.72-3.31,41.57,41.57,0,0,0-5-2.57c-.9-.37-1.81-.75-2.74-1.05a5.37,5.37,0,0,0-2.61-.45A.37.37,0,0,0,215.27,138.42Z"/><path class="cls-14" d="M95.68,108.34c.5-3.41,4.66-3.21,7.25-3.33a37.9,37.9,0,0,0,8.12-1.38c5.4-1.47,10.46-3.93,15.85-5.44,1.27-.35,2.54-.7,3.79-1.15,1.4-.49,2.72-1.15,4.14-1.58a32.16,32.16,0,0,1,8.28-1.13c5.77-.19,11.54,0,17.31,0s11.74-.69,17.62-1.13a66,66,0,0,1,15.83.64c9.89,1.65,19.33,5.18,28.89,8.07a122.8,122.8,0,0,0,14.14,3.54,84.82,84.82,0,0,0,14.59,1.1c5.13,0,10.45,0,15.33,1.77a26.35,26.35,0,0,1,10.93,8,80.42,80.42,0,0,1,7.65,11.16c2.69,4.47,5.39,8.91,8.34,13.22,6.56,9.58,13.74,18.74,20.73,28q10.75,14.25,21.5,28.51c3.47,4.6,6.91,9.22,10.43,13.79a73.39,73.39,0,0,0,9.85,11,29.65,29.65,0,0,0,5.84,3.88c.64.32,1.3-.79.65-1.08-9.29-4.09-15.09-14.53-21.38-23.51-7-9.95-14.66-19.38-22-29.07-7.19-9.51-14.54-18.93-21.47-28.64-3.25-4.56-6.34-9.22-9.22-14A132.91,132.91,0,0,0,281,117.58a33.61,33.61,0,0,0-9.47-8.94c-4.22-2.52-9-3.45-13.88-3.7-5.13-.27-10.28,0-15.4-.48a91.31,91.31,0,0,1-14.82-3c-9.8-2.72-19.32-6.42-29.27-8.57a68.63,68.63,0,0,0-14.91-1.67c-5.94,0-11.82,1-17.74,1.26s-11.92,0-17.88.07a82.71,82.71,0,0,0-8.47.34,28.3,28.3,0,0,0-7.82,2.1c-2.59,1.08-5.33,1.65-8,2.53s-5.45,2.08-8.19,3.08a59.36,59.36,0,0,1-8.65,2.6c-2.62.52-5.5.25-8,1.12a4.55,4.55,0,0,0-3.31,3.92A.24.24,0,0,0,95.68,108.34Z"/><path class="cls-14" d="M128.54,254.67a68.79,68.79,0,0,0,11.22-2.57c1.83-.57,3.65-1.19,5.45-1.84a22.8,22.8,0,0,0,5.32-2.27.73.73,0,0,0-.52-1.29,31.67,31.67,0,0,0-5.29,1.94q-2.7,1-5.44,1.89c-3.64,1.16-7.3,2.2-11,3.29C127.83,254,128.05,254.74,128.54,254.67Z"/><path class="cls-14" d="M154.54,245.7c0,.32,0,.65.05,1a.47.47,0,0,0,.39.4,40.49,40.49,0,0,0,7.78.59q3.86.06,7.69-.22a51.08,51.08,0,0,0,7.89-1c1.08-.24,2.06-.77,3.17-.95a15.36,15.36,0,0,1,3.25,0c1.1.05,2.2-.12,3.31-.18l4.08-.21q3.94-.18,7.87-.26a149.46,149.46,0,0,1,15.41.41,90.37,90.37,0,0,1,14.62,2.37A61.47,61.47,0,0,1,237.2,250c1.11.44,2.21.91,3.31,1.4s2.29.73,3.39,1.23c2.13,1,4.1,2.35,6.15,3.48,2.25,1.25,4.52,2.48,6.82,3.65a102.74,102.74,0,0,0,13.22,5.78,56.61,56.61,0,0,0,15.46,3.35,40,40,0,0,0,7.74-.26,23.29,23.29,0,0,0,7.47-2.08c.92-.48.68-2.21-.49-1.92-2.24.56-4.44,1.22-6.72,1.57a37,37,0,0,1-6.81.36,54.12,54.12,0,0,1-13.8-2.55c-9.23-2.91-17.84-7.57-26.26-12.25a56.18,56.18,0,0,0-6.51-2.59,67.06,67.06,0,0,0-7-2.38A87.73,87.73,0,0,0,218.62,244c-10.1-1.1-20.3-.74-30.42-.16a27.3,27.3,0,0,1-4,.16,10.47,10.47,0,0,0-3.35.13c-1.32.3-2.52.86-3.88,1.08s-3,.42-4.43.58c-2.92.31-5.85.5-8.78.54s-5.82-.26-8.72-.19l.48.28c-.08-.3-.17-.61-.26-.92S154.53,245.32,154.54,245.7Z"/><path class="cls-14" d="M271.65,263.17c9,5.95,18.08,11.9,27.73,16.84,4.85,2.48,9.88,4.54,14.9,6.66A127.55,127.55,0,0,1,329.11,294c4.8,2.8,9.44,5.88,14.11,8.9l14.49,9.37L387,331.18c4.83,3.13,9.69,6.21,14.54,9.31s9.7,6.31,14.72,9.16l3.76,2.12c.59.33,1.14-.61.6-1-9.29-6.92-19.16-13.07-28.85-19.41s-19.41-12.55-29.11-18.82S343.57,300,333.87,294a117.23,117.23,0,0,0-14.56-7.74c-5.06-2.22-10.24-4.16-15.28-6.44a302.16,302.16,0,0,1-28.5-15.27l-3.5-2.07C271.66,262.31,271.29,262.93,271.65,263.17Z"/><path class="cls-14" d="M357.61,222.42a64.14,64.14,0,0,1,8.23,1.55,56.16,56.16,0,0,1,8,2.6,120,120,0,0,1,15.21,7.62c5.08,2.94,10.06,6,15.13,9q7.95,4.63,16.05,9,16.23,8.78,33,16.53T487,283c11.46,4.36,23.06,8.4,34.83,11.85,1.41.42,2.82.82,4.24,1.2.6.17.89-.85.3-1.05-11.62-4-23.25-8-34.73-12.39s-22.78-9.17-34-14.25-22.24-10.53-33.1-16.31-21.21-12-31.73-18.13A134.21,134.21,0,0,0,377.76,226a50.39,50.39,0,0,0-16.13-4.37,38.13,38.13,0,0,0-4,0C357.2,221.68,357.19,222.37,357.61,222.42Z"/></svg>